<svg id="visual" viewBox="0 0 900 200" width="900" height="200" xmlns="http://www.w3.org/2000/svg" xmlns:xlink="http://www.w3.org/1999/xlink" version="1.1"><path d="M0 60L21.5 61C43 62 86 64 128.8 59.5C171.7 55 214.3 44 257.2 43.5C300 43 343 53 385.8 60.7C428.7 68.3 471.3 73.7 514.2 76.8C557 80 600 81 642.8 74.3C685.7 67.7 728.3 53.3 771.2 52.5C814 51.7 857 64.3 878.5 70.7L900 77L900 201L878.5 201C857 201 814 201 771.2 201C728.3 201 685.7 201 642.8 201C600 201 557 201 514.2 201C471.3 201 428.7 201 385.8 201C343 201 300 201 257.2 201C214.3 201 171.7 201 128.8 201C86 201 43 201 21.5 201L0 201Z" fill="#111111"></path><path d="M0 107L21.5 109C43 111 86 115 128.8 110.5C171.7 106 214.3 93 257.2 83.8C300 74.7 343 69.3 385.8 73.8C428.7 78.3 471.3 92.7 514.2 94.5C557 96.3 600 85.7 642.8 79.5C685.7 73.3 728.3 71.7 771.2 78C814 84.3 857 98.7 878.5 105.8L900 113L900 201L878.5 201C857 201 814 201 771.2 201C728.3 201 685.7 201 642.8 201C600 201 557 201 514.2 201C471.3 201 428.7 201 385.8 201C343 201 300 201 257.2 201C214.3 201 171.7 201 128.8 201C86 201 43 201 21.5 201L0 201Z" fill="#404041"></path><path d="M0 123L21.5 118.8C43 114.7 86 106.3 128.8 107.5C171.7 108.7 214.3 119.3 257.2 120C300 120.7 343 111.3 385.8 109C428.7 106.7 471.3 111.3 514.2 113.3C557 115.3 600 114.7 642.8 113C685.7 111.3 728.3 108.7 771.2 111.5C814 114.3 857 122.7 878.5 126.8L900 131L900 201L878.5 201C857 201 814 201 771.2 201C728.3 201 685.7 201 642.8 201C600 201 557 201 514.2 201C471.3 201 428.7 201 385.8 201C343 201 300 201 257.2 201C214.3 201 171.7 201 128.8 201C86 201 43 201 21.5 201L0 201Z" fill="#757577"></path><path d="M0 125L21.5 130.5C43 136 86 147 128.8 152.8C171.7 158.7 214.3 159.3 257.2 159.3C300 159.3 343 158.7 385.8 155.7C428.7 152.7 471.3 147.3 514.2 142.2C557 137 600 132 642.8 128.7C685.7 125.3 728.3 123.7 771.2 129.2C814 134.7 857 147.3 878.5 153.7L900 160L900 201L878.5 201C857 201 814 201 771.2 201C728.3 201 685.7 201 642.8 201C600 201 557 201 514.2 201C471.3 201 428.7 201 385.8 201C343 201 300 201 257.2 201C214.3 201 171.7 201 128.8 201C86 201 43 201 21.5 201L0 201Z" fill="#aeafb2"></path><path d="M0 176L21.5 175.3C43 174.7 86 173.3 128.8 173C171.7 172.7 214.3 173.3 257.2 171.2C300 169 343 164 385.8 163.2C428.7 162.3 471.3 165.7 514.2 167.3C557 169 600 169 642.8 168.8C685.7 168.7 728.3 168.3 771.2 165.7C814 163 857 158 878.5 155.5L900 153L900 201L878.5 201C857 201 814 201 771.2 201C728.3 201 685.7 201 642.8 201C600 201 557 201 514.2 201C471.3 201 428.7 201 385.8 201C343 201 300 201 257.2 201C214.3 201 171.7 201 128.8 201C86 201 43 201 21.5 201L0 201Z" fill="#ebedf0"></path></svg>