<svg id="visual" viewBox="0 0 900 200" width="900" height="200" xmlns="http://www.w3.org/2000/svg" xmlns:xlink="http://www.w3.org/1999/xlink" version="1.1"><path d="M0 155L16.7 155.2C33.3 155.3 66.7 155.7 100 150.5C133.3 145.3 166.7 134.7 200 132.7C233.3 130.7 266.7 137.3 300 135C333.3 132.7 366.7 121.3 400 123.8C433.3 126.3 466.7 142.7 500 140.3C533.3 138 566.7 117 600 107.5C633.3 98 666.7 100 700 111C733.3 122 766.7 142 800 150C833.3 158 866.7 154 883.3 152L900 150L900 201L883.3 201C866.7 201 833.3 201 800 201C766.7 201 733.3 201 700 201C666.7 201 633.3 201 600 201C566.7 201 533.3 201 500 201C466.7 201 433.3 201 400 201C366.7 201 333.3 201 300 201C266.7 201 233.3 201 200 201C166.7 201 133.3 201 100 201C66.7 201 33.3 201 16.7 201L0 201Z" fill="#111111" stroke-linecap="round" stroke-linejoin="miter"></path></svg>