<svg id="visual" viewBox="0 0 900 200" width="900" height="200" xmlns="http://www.w3.org/2000/svg" xmlns:xlink="http://www.w3.org/1999/xlink" version="1.1"><path d="M0 161L16.7 156C33.3 151 66.7 141 100 140C133.3 139 166.7 147 200 151.7C233.3 156.3 266.7 157.7 300 153.3C333.3 149 366.7 139 400 133C433.3 127 466.7 125 500 129.7C533.3 134.3 566.7 145.7 600 147.2C633.3 148.7 666.7 140.3 700 140.2C733.3 140 766.7 148 800 145.2C833.3 142.3 866.7 128.7 883.3 121.8L900 115L900 201L883.3 201C866.7 201 833.3 201 800 201C766.7 201 733.3 201 700 201C666.7 201 633.3 201 600 201C566.7 201 533.3 201 500 201C466.7 201 433.3 201 400 201C366.7 201 333.3 201 300 201C266.7 201 233.3 201 200 201C166.7 201 133.3 201 100 201C66.7 201 33.3 201 16.7 201L0 201Z" fill="#ebedf0" stroke-linecap="round" stroke-linejoin="miter"></path></svg>