<svg id="visual" viewBox="0 0 900 400" width="900" height="400" xmlns="http://www.w3.org/2000/svg" xmlns:xlink="http://www.w3.org/1999/xlink" version="1.1"><path d="M0 282L21.5 281.5C43 281 86 280 128.8 278.7C171.7 277.3 214.3 275.7 257.2 274C300 272.3 343 270.7 385.8 267.7C428.7 264.7 471.3 260.3 514.2 258.7C557 257 600 258 642.8 256.5C685.7 255 728.3 251 771.2 249.7C814 248.3 857 249.7 878.5 250.3L900 251L900 401L878.5 401C857 401 814 401 771.2 401C728.3 401 685.7 401 642.8 401C600 401 557 401 514.2 401C471.3 401 428.7 401 385.8 401C343 401 300 401 257.2 401C214.3 401 171.7 401 128.8 401C86 401 43 401 21.5 401L0 401Z" fill="#111111"></path><path d="M0 266L21.5 270.8C43 275.7 86 285.3 128.8 290.8C171.7 296.3 214.3 297.7 257.2 295.3C300 293 343 287 385.8 282.7C428.7 278.3 471.3 275.7 514.2 280.3C557 285 600 297 642.8 296C685.7 295 728.3 281 771.2 282.8C814 284.7 857 302.3 878.5 311.2L900 320L900 401L878.5 401C857 401 814 401 771.2 401C728.3 401 685.7 401 642.8 401C600 401 557 401 514.2 401C471.3 401 428.7 401 385.8 401C343 401 300 401 257.2 401C214.3 401 171.7 401 128.8 401C86 401 43 401 21.5 401L0 401Z" fill="#404041"></path><path d="M0 307L21.5 310.7C43 314.3 86 321.7 128.8 326.3C171.7 331 214.3 333 257.2 331.3C300 329.7 343 324.3 385.8 319.7C428.7 315 471.3 311 514.2 309.3C557 307.7 600 308.3 642.8 311.2C685.7 314 728.3 319 771.2 323.2C814 327.3 857 330.7 878.5 332.3L900 334L900 401L878.5 401C857 401 814 401 771.2 401C728.3 401 685.7 401 642.8 401C600 401 557 401 514.2 401C471.3 401 428.7 401 385.8 401C343 401 300 401 257.2 401C214.3 401 171.7 401 128.8 401C86 401 43 401 21.5 401L0 401Z" fill="#757577"></path><path d="M0 332L21.5 333.5C43 335 86 338 128.8 339.8C171.7 341.7 214.3 342.3 257.2 340C300 337.7 343 332.3 385.8 335.3C428.7 338.3 471.3 349.7 514.2 351.8C557 354 600 347 642.8 345C685.7 343 728.3 346 771.2 344.7C814 343.3 857 337.7 878.5 334.8L900 332L900 401L878.5 401C857 401 814 401 771.2 401C728.3 401 685.7 401 642.8 401C600 401 557 401 514.2 401C471.3 401 428.7 401 385.8 401C343 401 300 401 257.2 401C214.3 401 171.7 401 128.8 401C86 401 43 401 21.5 401L0 401Z" fill="#aeafb2"></path><path d="M0 369L21.5 370.3C43 371.7 86 374.3 128.8 372.7C171.7 371 214.3 365 257.2 364.5C300 364 343 369 385.8 372.5C428.7 376 471.3 378 514.2 375.5C557 373 600 366 642.8 363.5C685.7 361 728.3 363 771.2 363.5C814 364 857 363 878.5 362.5L900 362L900 401L878.5 401C857 401 814 401 771.2 401C728.3 401 685.7 401 642.8 401C600 401 557 401 514.2 401C471.3 401 428.7 401 385.8 401C343 401 300 401 257.2 401C214.3 401 171.7 401 128.8 401C86 401 43 401 21.5 401L0 401Z" fill="#ebedf0"></path></svg>